<svg width="75" height="38" viewBox="0 0 75 38" fill="none" xmlns="http://www.w3.org/2000/svg">
<mask id="path-1-inside-1_1_16368" fill="white">
<path d="M0 4C0 1.79086 1.79086 0 4 0H71C73.2091 0 75 1.79086 75 4V34C75 36.2091 73.2091 38 71 38H4C1.79086 38 0 36.2091 0 34V4Z"/>
</mask>
<path d="M4 0V1H71V0V-1H4V0ZM75 4H74V34H75H76V4H75ZM71 38V37H4V38V39H71V38ZM0 34H1V4H0H-1V34H0ZM4 38V37C2.34315 37 1 35.6569 1 34H0H-1C-1 36.7614 1.23858 39 4 39V38ZM75 34H74C74 35.6569 72.6569 37 71 37V38V39C73.7614 39 76 36.7614 76 34H75ZM71 0V1C72.6569 1 74 2.34315 74 4H75H76C76 1.23858 73.7614 -1 71 -1V0ZM4 0V-1C1.23858 -1 -1 1.23858 -1 4H0H1C1 2.34315 2.34315 1 4 1V0Z" fill="#38AEE0" mask="url(#path-1-inside-1_1_16368)"/>
<path d="M20.333 22.3335H21.6663V19.6668H24.333V18.3335H21.6663V15.6668H20.333V18.3335H17.6663V19.6668H20.333V22.3335ZM20.9997 25.6668C20.0775 25.6668 19.2108 25.4946 18.3997 25.1502C17.5886 24.7946 16.883 24.3168 16.283 23.7168C15.683 23.1168 15.2052 22.4113 14.8497 21.6002C14.5052 20.7891 14.333 19.9224 14.333 19.0002C14.333 18.0779 14.5052 17.2113 14.8497 16.4002C15.2052 15.5891 15.683 14.8835 16.283 14.2835C16.883 13.6835 17.5886 13.2113 18.3997 12.8668C19.2108 12.5113 20.0775 12.3335 20.9997 12.3335C21.9219 12.3335 22.7886 12.5113 23.5997 12.8668C24.4108 13.2113 25.1163 13.6835 25.7163 14.2835C26.3163 14.8835 26.7886 15.5891 27.133 16.4002C27.4886 17.2113 27.6663 18.0779 27.6663 19.0002C27.6663 19.9224 27.4886 20.7891 27.133 21.6002C26.7886 22.4113 26.3163 23.1168 25.7163 23.7168C25.1163 24.3168 24.4108 24.7946 23.5997 25.1502C22.7886 25.4946 21.9219 25.6668 20.9997 25.6668ZM20.9997 24.3335C22.4886 24.3335 23.7497 23.8168 24.783 22.7835C25.8163 21.7502 26.333 20.4891 26.333 19.0002C26.333 17.5113 25.8163 16.2502 24.783 15.2168C23.7497 14.1835 22.4886 13.6668 20.9997 13.6668C19.5108 13.6668 18.2497 14.1835 17.2163 15.2168C16.183 16.2502 15.6663 17.5113 15.6663 19.0002C15.6663 20.4891 16.183 21.7502 17.2163 22.7835C18.2497 23.8168 19.5108 24.3335 20.9997 24.3335Z" fill="#38AEE0"/>
<path d="M37 24L40.836 14.662H42.166L46.058 24H44.028L43.272 22.124H39.674L38.904 24H37ZM40.248 20.542H42.656L41.452 17.476L40.248 20.542ZM51.0814 24L50.9974 23.482C50.8294 23.6593 50.61 23.818 50.3394 23.958C50.0687 24.0887 49.7467 24.154 49.3734 24.154C48.8787 24.154 48.4447 24.0607 48.0714 23.874C47.698 23.6873 47.3807 23.4353 47.1194 23.118C46.8674 22.7913 46.676 22.4133 46.5454 21.984C46.4147 21.5547 46.3494 21.0927 46.3494 20.598C46.3494 20.1593 46.4194 19.73 46.5594 19.31C46.6994 18.89 46.9094 18.5167 47.1894 18.19C47.4694 17.854 47.8194 17.588 48.2394 17.392C48.6594 17.1867 49.154 17.084 49.7234 17.084C50.0874 17.084 50.4887 17.1493 50.9274 17.28V14.746L52.7474 14.466V24H51.0814ZM50.9274 18.75C50.5634 18.6193 50.2367 18.554 49.9474 18.554C49.6394 18.554 49.3687 18.61 49.1354 18.722C48.9114 18.834 48.7247 18.988 48.5754 19.184C48.426 19.3707 48.314 19.5853 48.2394 19.828C48.1647 20.0613 48.1274 20.304 48.1274 20.556C48.1274 20.8453 48.1554 21.1207 48.2114 21.382C48.2767 21.634 48.3747 21.858 48.5054 22.054C48.636 22.2407 48.7994 22.39 48.9954 22.502C49.2007 22.614 49.448 22.67 49.7374 22.67C49.9614 22.67 50.19 22.614 50.4234 22.502C50.6567 22.3807 50.8247 22.2407 50.9274 22.082V18.75ZM58.8743 24L58.7903 23.482C58.6223 23.6593 58.403 23.818 58.1323 23.958C57.8617 24.0887 57.5397 24.154 57.1663 24.154C56.6717 24.154 56.2377 24.0607 55.8643 23.874C55.491 23.6873 55.1737 23.4353 54.9123 23.118C54.6603 22.7913 54.469 22.4133 54.3383 21.984C54.2077 21.5547 54.1423 21.0927 54.1423 20.598C54.1423 20.1593 54.2123 19.73 54.3523 19.31C54.4923 18.89 54.7023 18.5167 54.9823 18.19C55.2623 17.854 55.6123 17.588 56.0323 17.392C56.4523 17.1867 56.947 17.084 57.5163 17.084C57.8803 17.084 58.2817 17.1493 58.7203 17.28V14.746L60.5403 14.466V24H58.8743ZM58.7203 18.75C58.3563 18.6193 58.0297 18.554 57.7403 18.554C57.4323 18.554 57.1617 18.61 56.9283 18.722C56.7043 18.834 56.5177 18.988 56.3683 19.184C56.219 19.3707 56.107 19.5853 56.0323 19.828C55.9577 20.0613 55.9203 20.304 55.9203 20.556C55.9203 20.8453 55.9483 21.1207 56.0043 21.382C56.0697 21.634 56.1677 21.858 56.2983 22.054C56.429 22.2407 56.5923 22.39 56.7883 22.502C56.9937 22.614 57.241 22.67 57.5303 22.67C57.7543 22.67 57.983 22.614 58.2163 22.502C58.4497 22.3807 58.6177 22.2407 58.7203 22.082V18.75Z" fill="#003E52"/>
</svg>
